<?xml version="1.0" encoding="utf-8"?>
<!-- Generator: Adobe Illustrator 24.0.1, SVG Export Plug-In . SVG Version: 6.00 Build 0)  -->
<svg version="1.1" id="Capa_1" xmlns="http://www.w3.org/2000/svg" xmlns:xlink="http://www.w3.org/1999/xlink" x="0px" y="0px"
	 viewBox="0 0 32 32" style="enable-background:new 0 0 32 32;" xml:space="preserve">
<style type="text/css">
	.st0{fill:#25325F;}
	.st1{fill:#FFAA3A;}
	.st2{fill:#DADBDA;}
</style>
<g>
	<g>
		<polygon class="st0" points="15.8,15.53 10.16,23.71 5.5,23.72 15.77,8.28 		"/>
	</g>
	<g>
		<g>
			<path class="st1" d="M6.54,21.9l1.05-1.57c-0.74-0.13-1.47-0.3-2.19-0.52l-0.98,1.48C5.11,21.54,5.82,21.74,6.54,21.9z"/>
		</g>
		<g>
			<path class="st1" d="M10.22,23.62L10.22,23.62c0.02,0,0.04,0,0.06,0C10.27,23.62,10.24,23.62,10.22,23.62z"/>
			<path class="st1" d="M21.29,19.11c2.49-1.74,4.41-3.98,5.73-6.49c-0.15,0.35-0.32,0.69-0.49,1.02c0.87-1.69,1.48-3.5,1.8-5.36
				c-1.23,3.55-3.54,6.76-6.86,9.08c-2.82,1.97-5.77,3.04-8.97,3.28l-1.24,1.79C14.81,22.38,18.16,21.3,21.29,19.11z"/>
		</g>
	</g>
	<g>
		<path class="st2" d="M6.54,21.9c-0.72-0.16-1.43-0.37-2.12-0.61l-0.74,1.12c0.69,0.25,1.39,0.46,2.1,0.63L6.54,21.9z"/>
		<path class="st2" d="M21.29,19.11c-3.13,2.19-6.52,3.27-10.07,3.33l-0.82,1.19c3.63-0.01,7.11-1.09,10.31-3.33
			c2.87-2.01,4.99-4.68,6.3-7.67C25.7,15.13,23.78,17.37,21.29,19.11z"/>
	</g>
	<path class="st2" d="M22.85,18.88c-0.61,0.57-1.27,1.1-1.98,1.6c-0.38,0.27-0.78,0.51-1.17,0.75l1.66,2.49h4.67L22.85,18.88z"/>
	<path class="st2" d="M21.53,16.98l-5.76-8.7l0.01,7.28l0.02-0.03l2.29,3.41c1.1-0.48,2.18-1.07,3.2-1.79
		C21.38,17.1,21.45,17.04,21.53,16.98z"/>
</g>
</svg>
