<?xml version="1.0" encoding="utf-8"?>
<!-- Generator: Adobe Illustrator 24.0.1, SVG Export Plug-In . SVG Version: 6.00 Build 0)  -->
<svg version="1.1" id="Capa_1" xmlns="http://www.w3.org/2000/svg" xmlns:xlink="http://www.w3.org/1999/xlink" x="0px" y="0px"
	 viewBox="0 0 792 298.84" style="enable-background:new 0 0 792 298.84;" xml:space="preserve">
<style type="text/css">
	.st0{fill:#25325F;}
	.st1{fill:#FFAA3A;}
	.st2{fill:#DADBDA;}
	.st3{fill:#EEA43F;}
</style>
<g>
	<g>
		<path class="st0" d="M74.06,108.73v0.08l-0.08,65.47l-32.34-0.25l-0.17-65.31H74.06z"/>
		<path class="st0" d="M102.73,55.82l118.16-0.15l0.17,29.33h-44.82l-0.07,89.47l-29.35-0.22l0.16-89.22l-44.56-0.07L102.73,55.82z"
			/>
		<path class="st0" d="M240.95,55.66h118.16l0.17,29.33h-44.81l-0.07,89.37l-29.34-0.22l0.16-89.12l-44.57-0.07L240.95,55.66z"/>
		<path class="st0" d="M412.08,108.73v0.08L412,174.28l-32.34-0.25l-0.16-65.31H412.08z"/>
		<rect x="41.6" y="55.66" class="st0" width="32.37" height="29.33"/>
		<rect x="379.47" y="55.66" class="st1" width="32.36" height="29.33"/>
		<g>
			<g>
				<polygon class="st0" points="668.05,111.51 624.73,174.33 588.86,174.4 667.81,55.81 				"/>
			</g>
			<g>
				<g>
					<path class="st1" d="M596.85,160.46l8.05-12.09c-5.68-1-11.3-2.31-16.82-3.99l-7.53,11.37
						C585.9,157.66,591.34,159.22,596.85,160.46z"/>
				</g>
				<g>
					<path class="st1" d="M625.19,173.66L625.19,173.66c0.16,0,0.33-0.02,0.49-0.02C625.52,173.64,625.35,173.66,625.19,173.66z"/>
					<path class="st1" d="M710.22,139c19.1-13.37,33.85-30.59,44.02-49.87c-1.17,2.66-2.44,5.28-3.78,7.87
						c6.71-13,11.37-26.91,13.82-41.2c-9.44,27.29-27.22,51.96-52.7,69.79c-21.65,15.15-44.35,23.37-68.91,25.19l-9.51,13.79
						C660.45,164.12,686.18,155.82,710.22,139z"/>
				</g>
			</g>
			<g>
				<path class="st2" d="M596.85,160.47c-5.51-1.25-10.96-2.81-16.3-4.7l-5.69,8.61c5.29,1.94,10.69,3.55,16.16,4.84L596.85,160.47z
					"/>
				<path class="st2" d="M710.22,139.01c-24.04,16.82-50.08,25.1-77.36,25.55l-6.28,9.11c27.89-0.1,54.63-8.4,79.22-25.6
					c22.05-15.42,38.35-35.99,48.44-58.93C744.07,108.42,729.33,125.64,710.22,139.01z"/>
			</g>
			<path class="st2" d="M722.22,137.23c-4.72,4.37-9.79,8.49-15.21,12.28c-2.95,2.06-5.96,3.96-9,5.76l12.78,19.13h35.92
				L722.22,137.23z"/>
			<path class="st2" d="M712.05,122.65l-44.24-66.84l0.1,55.91l0.14-0.2l17.62,26.23c8.48-3.71,16.74-8.25,24.62-13.76
				C710.9,123.56,711.45,123.08,712.05,122.65z"/>
		</g>
		<g>
			<path class="st0" d="M518.45,174.52L439.41,55.81l35.9,0.07l43.37,62.87L518.45,174.52z"/>
			<g>
				<polygon class="st2" points="597.41,55.81 561.43,55.81 518.67,118.75 518.45,174.52 				"/>
			</g>
		</g>
	</g>
	<g>
		<g>
			<path class="st0" d="M43.72,244.78c1.4,0.86,3.44,1.58,5.58,1.58c3.19,0,5.05-1.68,5.05-4.12c0-2.26-1.29-3.54-4.55-4.8
				c-3.94-1.4-6.37-3.44-6.37-6.84c0-3.76,3.11-6.55,7.8-6.55c2.47,0,4.26,0.57,5.33,1.18l-0.86,2.54c-0.79-0.43-2.4-1.15-4.58-1.15
				c-3.29,0-4.55,1.97-4.55,3.61c0,2.26,1.47,3.37,4.8,4.65c4.08,1.58,6.16,3.54,6.16,7.09c0,3.72-2.76,6.94-8.45,6.94
				c-2.33,0-4.87-0.68-6.16-1.54L43.72,244.78z"/>
			<path class="st0" d="M91.9,239.77c0,6.41-4.44,9.2-8.63,9.2c-4.69,0-8.31-3.44-8.31-8.91c0-5.8,3.79-9.2,8.59-9.2
				C88.53,230.85,91.9,234.47,91.9,239.77z M78.15,239.95c0,3.79,2.18,6.66,5.26,6.66c3.01,0,5.26-2.83,5.26-6.73
				c0-2.93-1.47-6.66-5.19-6.66S78.15,236.65,78.15,239.95z"/>
			<path class="st0" d="M110.18,235.94c0-1.79-0.04-3.26-0.14-4.69h2.76l0.14,2.79h0.11c0.97-1.65,2.58-3.19,5.44-3.19
				c2.36,0,4.15,1.43,4.9,3.47h0.07c0.54-0.97,1.22-1.72,1.93-2.25c1.04-0.79,2.18-1.22,3.83-1.22c2.29,0,5.69,1.51,5.69,7.52v10.2
				h-3.08v-9.81c0-3.33-1.22-5.33-3.76-5.33c-1.79,0-3.19,1.33-3.72,2.86c-0.14,0.43-0.25,1-0.25,1.58v10.7h-3.08v-10.38
				c0-2.76-1.22-4.76-3.62-4.76c-1.97,0-3.4,1.58-3.9,3.15c-0.18,0.47-0.25,1-0.25,1.54v10.45h-3.08V235.94z"/>
			<path class="st0" d="M170.02,239.77c0,6.41-4.44,9.2-8.63,9.2c-4.69,0-8.31-3.44-8.31-8.91c0-5.8,3.79-9.2,8.59-9.2
				C166.66,230.85,170.02,234.47,170.02,239.77z M156.28,239.95c0,3.79,2.18,6.66,5.26,6.66c3.01,0,5.26-2.83,5.26-6.73
				c0-2.93-1.47-6.66-5.19-6.66S156.28,236.65,156.28,239.95z"/>
			<path class="st0" d="M187.88,245.35c0.93,0.61,2.58,1.25,4.15,1.25c2.29,0,3.37-1.15,3.37-2.58c0-1.5-0.89-2.33-3.22-3.19
				c-3.11-1.11-4.58-2.83-4.58-4.9c0-2.79,2.26-5.09,5.98-5.09c1.75,0,3.29,0.5,4.26,1.08l-0.79,2.29c-0.68-0.43-1.93-1-3.54-1
				c-1.86,0-2.9,1.07-2.9,2.36c0,1.43,1.04,2.08,3.29,2.94c3.01,1.15,4.55,2.65,4.55,5.22c0,3.04-2.36,5.19-6.48,5.19
				c-1.9,0-3.65-0.47-4.87-1.18L187.88,245.35z"/>
			<path class="st0" d="M238.69,223.16h3.15v25.42h-3.15V223.16z"/>
			<path class="st0" d="M271.05,248.57l-0.25-2.18h-0.11c-0.97,1.36-2.83,2.58-5.3,2.58c-3.51,0-5.3-2.47-5.3-4.98
				c0-4.19,3.72-6.48,10.42-6.44v-0.36c0-1.43-0.39-4.01-3.94-4.01c-1.61,0-3.29,0.5-4.51,1.29l-0.72-2.08
				c1.43-0.93,3.51-1.54,5.69-1.54c5.3,0,6.59,3.62,6.59,7.09v6.48c0,1.5,0.07,2.97,0.29,4.15H271.05z M270.58,239.73
				c-3.44-0.07-7.34,0.54-7.34,3.9c0,2.04,1.36,3.01,2.97,3.01c2.26,0,3.69-1.43,4.19-2.9c0.11-0.32,0.18-0.68,0.18-1V239.73z"/>
			<path class="st0" d="M314.6,244.78c1.4,0.86,3.44,1.58,5.58,1.58c3.19,0,5.05-1.68,5.05-4.12c0-2.26-1.29-3.54-4.55-4.8
				c-3.94-1.4-6.37-3.44-6.37-6.84c0-3.76,3.11-6.55,7.8-6.55c2.47,0,4.26,0.57,5.33,1.18l-0.86,2.54c-0.79-0.43-2.4-1.15-4.58-1.15
				c-3.29,0-4.55,1.97-4.55,3.61c0,2.26,1.47,3.37,4.8,4.65c4.08,1.58,6.16,3.54,6.16,7.09c0,3.72-2.76,6.94-8.45,6.94
				c-2.33,0-4.87-0.68-6.16-1.54L314.6,244.78z"/>
			<path class="st0" d="M362.77,239.77c0,6.41-4.44,9.2-8.63,9.2c-4.69,0-8.31-3.44-8.31-8.91c0-5.8,3.79-9.2,8.59-9.2
				C359.41,230.85,362.77,234.47,362.77,239.77z M349.02,239.95c0,3.79,2.18,6.66,5.26,6.66c3.01,0,5.26-2.83,5.26-6.73
				c0-2.93-1.47-6.66-5.19-6.66S349.02,236.65,349.02,239.95z"/>
			<path class="st0" d="M381.05,223.16h3.15v25.42h-3.15V223.16z"/>
			<path class="st0" d="M418.31,243.85c0,1.79,0.04,3.37,0.14,4.73h-2.79l-0.18-2.83h-0.07c-0.82,1.4-2.65,3.22-5.73,3.22
				c-2.72,0-5.98-1.51-5.98-7.59v-10.13h3.15v9.59c0,3.29,1,5.51,3.87,5.51c2.11,0,3.58-1.47,4.15-2.86
				c0.18-0.47,0.29-1.04,0.29-1.61v-10.63h3.15V243.85z"/>
			<path class="st0" d="M450.2,247.93c-0.82,0.43-2.65,1-4.98,1c-5.22,0-8.63-3.54-8.63-8.84c0-5.33,3.65-9.2,9.31-9.2
				c1.86,0,3.51,0.47,4.37,0.9l-0.72,2.43c-0.75-0.43-1.93-0.82-3.65-0.82c-3.97,0-6.12,2.94-6.12,6.55c0,4.01,2.58,6.48,6.01,6.48
				c1.79,0,2.97-0.46,3.87-0.86L450.2,247.93z"/>
			<path class="st0" d="M471.7,226.38c0.03,1.07-0.75,1.93-2,1.93c-1.11,0-1.9-0.86-1.9-1.93c0-1.11,0.82-1.97,1.97-1.97
				C470.95,224.41,471.7,225.27,471.7,226.38z M468.19,248.57v-17.33h3.15v17.33H468.19z"/>
			<path class="st0" d="M506.56,239.77c0,6.41-4.44,9.2-8.63,9.2c-4.69,0-8.31-3.44-8.31-8.91c0-5.8,3.79-9.2,8.59-9.2
				C503.2,230.85,506.56,234.47,506.56,239.77z M492.81,239.95c0,3.79,2.18,6.66,5.26,6.66c3.01,0,5.26-2.83,5.26-6.73
				c0-2.93-1.47-6.66-5.19-6.66S492.81,236.65,492.81,239.95z M502.8,223.77l-4.37,5.12h-2.25l3.15-5.12H502.8z"/>
			<path class="st0" d="M524.84,235.94c0-1.79-0.04-3.26-0.14-4.69h2.79l0.18,2.86h0.07c0.86-1.65,2.86-3.26,5.73-3.26
				c2.4,0,6.12,1.43,6.12,7.38v10.34h-3.15v-9.99c0-2.79-1.04-5.12-4.01-5.12c-2.08,0-3.69,1.47-4.23,3.22
				c-0.14,0.39-0.21,0.93-0.21,1.47v10.42h-3.15V235.94z"/>
			<path class="st0" d="M580.92,236.9c0-2.22-0.07-4.01-0.14-5.66h2.83l0.14,2.97h0.07c1.29-2.11,3.33-3.37,6.16-3.37
				c4.19,0,7.34,3.54,7.34,8.81c0,6.23-3.8,9.31-7.88,9.31c-2.29,0-4.3-1-5.33-2.72h-0.07v9.41h-3.12V236.9z M584.04,241.52
				c0,0.46,0.07,0.89,0.14,1.29c0.57,2.18,2.47,3.69,4.73,3.69c3.33,0,5.26-2.72,5.26-6.69c0-3.47-1.83-6.44-5.15-6.44
				c-2.15,0-4.15,1.54-4.76,3.9c-0.11,0.39-0.21,0.86-0.21,1.29V241.52z"/>
			<path class="st0" d="M625.19,248.57l-0.25-2.18h-0.11c-0.97,1.36-2.83,2.58-5.3,2.58c-3.51,0-5.3-2.47-5.3-4.98
				c0-4.19,3.72-6.48,10.42-6.44v-0.36c0-1.43-0.39-4.01-3.94-4.01c-1.61,0-3.29,0.5-4.51,1.29l-0.72-2.08
				c1.43-0.93,3.51-1.54,5.69-1.54c5.3,0,6.59,3.62,6.59,7.09v6.48c0,1.5,0.07,2.97,0.29,4.15H625.19z M624.73,239.73
				c-3.44-0.07-7.34,0.54-7.34,3.9c0,2.04,1.36,3.01,2.97,3.01c2.25,0,3.69-1.43,4.19-2.9c0.11-0.32,0.18-0.68,0.18-1V239.73z"/>
			<path class="st0" d="M647.16,236.65c0-2.04-0.04-3.8-0.14-5.41h2.76l0.11,3.4h0.14c0.79-2.33,2.68-3.8,4.8-3.8
				c0.36,0,0.61,0.04,0.9,0.11v2.97c-0.32-0.07-0.64-0.11-1.07-0.11c-2.22,0-3.79,1.68-4.22,4.04c-0.07,0.43-0.14,0.93-0.14,1.47
				v9.24h-3.11V236.65z"/>
			<path class="st0" d="M682.59,248.57l-0.25-2.18h-0.11c-0.97,1.36-2.83,2.58-5.3,2.58c-3.51,0-5.3-2.47-5.3-4.98
				c0-4.19,3.72-6.48,10.42-6.44v-0.36c0-1.43-0.39-4.01-3.94-4.01c-1.61,0-3.29,0.5-4.51,1.29l-0.72-2.08
				c1.43-0.93,3.51-1.54,5.69-1.54c5.3,0,6.59,3.62,6.59,7.09v6.48c0,1.5,0.07,2.97,0.29,4.15H682.59z M682.13,239.73
				c-3.44-0.07-7.34,0.54-7.34,3.9c0,2.04,1.36,3.01,2.97,3.01c2.25,0,3.69-1.43,4.19-2.9c0.11-0.32,0.18-0.68,0.18-1V239.73z"/>
		</g>
	</g>
	<g>
		<path class="st0" d="M705.91,220.08h28.16l0.04,6.99h-10.68l-0.02,21.3l-6.99-0.05l0.04-21.24l-10.62-0.02L705.91,220.08z"/>
		<path class="st0" d="M746.7,232.73v0.02l-0.02,15.61l-7.71-0.06l-0.04-15.57H746.7z"/>
		<rect x="738.93" y="220.08" class="st3" width="7.71" height="6.99"/>
	</g>
</g>
</svg>
