<?xml version="1.0" encoding="utf-8"?>
<!-- Generator: Adobe Illustrator 24.0.1, SVG Export Plug-In . SVG Version: 6.00 Build 0)  -->
<svg version="1.1" id="Capa_1" xmlns="http://www.w3.org/2000/svg" xmlns:xlink="http://www.w3.org/1999/xlink" x="0px" y="0px"
	 viewBox="0 0 792 298.84" style="enable-background:new 0 0 792 298.84;" xml:space="preserve">
<style type="text/css">
	.st0{fill:#FFFFFF;}
</style>
<g>
	<g>
		<path class="st0" d="M74.06,106.63v0.08l-0.08,65.47l-32.34-0.25l-0.17-65.31H74.06z"/>
		<path class="st0" d="M102.73,53.72l118.16-0.15l0.17,29.33h-44.82l-0.07,89.47l-29.35-0.22l0.16-89.22l-44.56-0.07L102.73,53.72z"
			/>
		<path class="st0" d="M240.95,53.56h118.16l0.17,29.33h-44.81l-0.07,89.37l-29.34-0.22l0.16-89.12l-44.57-0.07L240.95,53.56z"/>
		<path class="st0" d="M412.08,106.63v0.08L412,172.19l-32.34-0.25l-0.16-65.31H412.08z"/>
		<rect x="41.6" y="53.56" class="st0" width="32.37" height="29.33"/>
		<rect x="379.47" y="53.56" class="st0" width="32.36" height="29.33"/>
		<g>
			<g>
				<polygon class="st0" points="666.45,109.39 624.73,172.23 588.86,172.3 666.21,53.68 				"/>
			</g>
			<g>
				<path class="st0" d="M625.19,171.57c0.17,0,0.33-0.02,0.5-0.02C625.52,171.55,625.35,171.56,625.19,171.57L625.19,171.57z"/>
				<path class="st0" d="M764.29,53.71c-9.44,27.29-27.22,51.96-52.7,69.79c-21.65,15.15-39.76,22.91-64.31,24.73l-9.51,13.79
					c0,0,0,0,0,0l-6.09,8.83c27.89-0.1,49.54-7.68,74.13-24.88c22.05-15.42,38.91-36.32,49-59.25
					C754.81,86.71,763.02,68.54,764.29,53.71z"/>
				<path class="st0" d="M574.86,162.28c5.29,1.94,7.06,2.65,12.53,3.94l13.87-20.84c-5.68-1-7.66-1.41-13.18-3.09L574.86,162.28z"
					/>
			</g>
			<path class="st0" d="M723.8,138.4c-4.72,4.37-9.79,8.49-15.21,12.28c-2.95,2.06-5.96,3.96-9,5.76l11.19,15.86h35.92L723.8,138.4z
				"/>
			<path class="st0" d="M682.7,131.74c8.48-3.71,16.74-8.25,24.62-13.76c0.61-0.43,1.16-0.91,1.76-1.34l-38.71-63.01l0.1,55.91
				L682.7,131.74z"/>
		</g>
		<g>
			<path class="st0" d="M518.45,172.43L439.41,53.71l35.9,0.07l43.37,62.87L518.45,172.43z"/>
			<g>
				<polygon class="st0" points="597.41,53.71 561.43,53.71 518.67,116.65 518.45,172.43 				"/>
			</g>
		</g>
	</g>
	<g>
		<g>
			<path class="st0" d="M43.72,242.68c1.4,0.86,3.44,1.58,5.58,1.58c3.19,0,5.05-1.68,5.05-4.12c0-2.26-1.29-3.54-4.55-4.8
				c-3.94-1.4-6.37-3.44-6.37-6.84c0-3.76,3.11-6.55,7.8-6.55c2.47,0,4.26,0.57,5.33,1.18l-0.86,2.54c-0.79-0.43-2.4-1.15-4.58-1.15
				c-3.29,0-4.55,1.97-4.55,3.61c0,2.26,1.47,3.37,4.8,4.65c4.08,1.58,6.16,3.54,6.16,7.09c0,3.72-2.76,6.94-8.45,6.94
				c-2.33,0-4.87-0.68-6.16-1.54L43.72,242.68z"/>
			<path class="st0" d="M91.9,237.67c0,6.41-4.44,9.2-8.63,9.2c-4.69,0-8.31-3.44-8.31-8.91c0-5.8,3.79-9.2,8.59-9.2
				C88.53,228.76,91.9,232.37,91.9,237.67z M78.15,237.85c0,3.79,2.18,6.66,5.26,6.66c3.01,0,5.26-2.83,5.26-6.73
				c0-2.93-1.47-6.66-5.19-6.66S78.15,234.56,78.15,237.85z"/>
			<path class="st0" d="M110.18,233.84c0-1.79-0.04-3.26-0.14-4.69h2.76l0.14,2.79h0.11c0.97-1.65,2.58-3.19,5.44-3.19
				c2.36,0,4.15,1.43,4.9,3.47h0.07c0.54-0.97,1.22-1.72,1.93-2.25c1.04-0.79,2.18-1.22,3.83-1.22c2.29,0,5.69,1.51,5.69,7.52v10.2
				h-3.08v-9.81c0-3.33-1.22-5.33-3.76-5.33c-1.79,0-3.19,1.33-3.72,2.86c-0.14,0.43-0.25,1-0.25,1.58v10.7h-3.08V236.1
				c0-2.76-1.22-4.76-3.62-4.76c-1.97,0-3.4,1.58-3.9,3.15c-0.18,0.47-0.25,1-0.25,1.54v10.45h-3.08V233.84z"/>
			<path class="st0" d="M170.02,237.67c0,6.41-4.44,9.2-8.63,9.2c-4.69,0-8.31-3.44-8.31-8.91c0-5.8,3.79-9.2,8.59-9.2
				C166.66,228.76,170.02,232.37,170.02,237.67z M156.28,237.85c0,3.79,2.18,6.66,5.26,6.66c3.01,0,5.26-2.83,5.26-6.73
				c0-2.93-1.47-6.66-5.19-6.66S156.28,234.56,156.28,237.85z"/>
			<path class="st0" d="M187.88,243.26c0.93,0.61,2.58,1.25,4.15,1.25c2.29,0,3.37-1.15,3.37-2.58c0-1.5-0.89-2.33-3.22-3.19
				c-3.11-1.11-4.58-2.83-4.58-4.9c0-2.79,2.26-5.09,5.98-5.09c1.75,0,3.29,0.5,4.26,1.08l-0.79,2.29c-0.68-0.43-1.93-1-3.54-1
				c-1.86,0-2.9,1.07-2.9,2.36c0,1.43,1.04,2.08,3.29,2.94c3.01,1.15,4.55,2.65,4.55,5.22c0,3.04-2.36,5.19-6.48,5.19
				c-1.9,0-3.65-0.47-4.87-1.18L187.88,243.26z"/>
			<path class="st0" d="M238.69,221.06h3.15v25.42h-3.15V221.06z"/>
			<path class="st0" d="M271.05,246.48l-0.25-2.18h-0.11c-0.97,1.36-2.83,2.58-5.3,2.58c-3.51,0-5.3-2.47-5.3-4.98
				c0-4.19,3.72-6.48,10.42-6.44v-0.36c0-1.43-0.39-4.01-3.94-4.01c-1.61,0-3.29,0.5-4.51,1.29l-0.72-2.08
				c1.43-0.93,3.51-1.54,5.69-1.54c5.3,0,6.59,3.62,6.59,7.09v6.48c0,1.5,0.07,2.97,0.29,4.15H271.05z M270.58,237.63
				c-3.44-0.07-7.34,0.54-7.34,3.9c0,2.04,1.36,3.01,2.97,3.01c2.26,0,3.69-1.43,4.19-2.9c0.11-0.32,0.18-0.68,0.18-1V237.63z"/>
			<path class="st0" d="M314.6,242.68c1.4,0.86,3.44,1.58,5.58,1.58c3.19,0,5.05-1.68,5.05-4.12c0-2.26-1.29-3.54-4.55-4.8
				c-3.94-1.4-6.37-3.44-6.37-6.84c0-3.76,3.11-6.55,7.8-6.55c2.47,0,4.26,0.57,5.33,1.18l-0.86,2.54c-0.79-0.43-2.4-1.15-4.58-1.15
				c-3.29,0-4.55,1.97-4.55,3.61c0,2.26,1.47,3.37,4.8,4.65c4.08,1.58,6.16,3.54,6.16,7.09c0,3.72-2.76,6.94-8.45,6.94
				c-2.33,0-4.87-0.68-6.16-1.54L314.6,242.68z"/>
			<path class="st0" d="M362.77,237.67c0,6.41-4.44,9.2-8.63,9.2c-4.69,0-8.31-3.44-8.31-8.91c0-5.8,3.79-9.2,8.59-9.2
				C359.41,228.76,362.77,232.37,362.77,237.67z M349.02,237.85c0,3.79,2.18,6.66,5.26,6.66c3.01,0,5.26-2.83,5.26-6.73
				c0-2.93-1.47-6.66-5.19-6.66S349.02,234.56,349.02,237.85z"/>
			<path class="st0" d="M381.05,221.06h3.15v25.42h-3.15V221.06z"/>
			<path class="st0" d="M418.31,241.75c0,1.79,0.04,3.37,0.14,4.73h-2.79l-0.18-2.83h-0.07c-0.82,1.4-2.65,3.22-5.73,3.22
				c-2.72,0-5.98-1.51-5.98-7.59v-10.13h3.15v9.59c0,3.29,1,5.51,3.87,5.51c2.11,0,3.58-1.47,4.15-2.86
				c0.18-0.47,0.29-1.04,0.29-1.61v-10.63h3.15V241.75z"/>
			<path class="st0" d="M450.2,245.83c-0.82,0.43-2.65,1-4.98,1c-5.22,0-8.63-3.54-8.63-8.84c0-5.33,3.65-9.2,9.31-9.2
				c1.86,0,3.51,0.47,4.37,0.9l-0.72,2.43c-0.75-0.43-1.93-0.82-3.65-0.82c-3.97,0-6.12,2.94-6.12,6.55c0,4.01,2.58,6.48,6.01,6.48
				c1.79,0,2.97-0.46,3.87-0.86L450.2,245.83z"/>
			<path class="st0" d="M471.7,224.28c0.03,1.07-0.75,1.93-2,1.93c-1.11,0-1.9-0.86-1.9-1.93c0-1.11,0.82-1.97,1.97-1.97
				C470.95,222.31,471.7,223.17,471.7,224.28z M468.19,246.48v-17.33h3.15v17.33H468.19z"/>
			<path class="st0" d="M506.56,237.67c0,6.41-4.44,9.2-8.63,9.2c-4.69,0-8.31-3.44-8.31-8.91c0-5.8,3.79-9.2,8.59-9.2
				C503.2,228.76,506.56,232.37,506.56,237.67z M492.81,237.85c0,3.79,2.18,6.66,5.26,6.66c3.01,0,5.26-2.83,5.26-6.73
				c0-2.93-1.47-6.66-5.19-6.66S492.81,234.56,492.81,237.85z M502.8,221.67l-4.37,5.12h-2.25l3.15-5.12H502.8z"/>
			<path class="st0" d="M524.84,233.84c0-1.79-0.04-3.26-0.14-4.69h2.79l0.18,2.86h0.07c0.86-1.65,2.86-3.26,5.73-3.26
				c2.4,0,6.12,1.43,6.12,7.38v10.34h-3.15v-9.99c0-2.79-1.04-5.12-4.01-5.12c-2.08,0-3.69,1.47-4.23,3.22
				c-0.14,0.39-0.21,0.93-0.21,1.47v10.42h-3.15V233.84z"/>
			<path class="st0" d="M580.92,234.81c0-2.22-0.07-4.01-0.14-5.66h2.83l0.14,2.97h0.07c1.29-2.11,3.33-3.37,6.16-3.37
				c4.19,0,7.34,3.54,7.34,8.81c0,6.23-3.8,9.31-7.88,9.31c-2.29,0-4.3-1-5.33-2.72h-0.07v9.41h-3.12V234.81z M584.04,239.43
				c0,0.46,0.07,0.89,0.14,1.29c0.57,2.18,2.47,3.69,4.73,3.69c3.33,0,5.26-2.72,5.26-6.69c0-3.47-1.83-6.44-5.15-6.44
				c-2.15,0-4.15,1.54-4.76,3.9c-0.11,0.39-0.21,0.86-0.21,1.29V239.43z"/>
			<path class="st0" d="M625.19,246.48l-0.25-2.18h-0.11c-0.97,1.36-2.83,2.58-5.3,2.58c-3.51,0-5.3-2.47-5.3-4.98
				c0-4.19,3.72-6.48,10.42-6.44v-0.36c0-1.43-0.39-4.01-3.94-4.01c-1.61,0-3.29,0.5-4.51,1.29l-0.72-2.08
				c1.43-0.93,3.51-1.54,5.69-1.54c5.3,0,6.59,3.62,6.59,7.09v6.48c0,1.5,0.07,2.97,0.29,4.15H625.19z M624.73,237.63
				c-3.44-0.07-7.34,0.54-7.34,3.9c0,2.04,1.36,3.01,2.97,3.01c2.25,0,3.69-1.43,4.19-2.9c0.11-0.32,0.18-0.68,0.18-1V237.63z"/>
			<path class="st0" d="M647.16,234.56c0-2.04-0.04-3.8-0.14-5.41h2.76l0.11,3.4h0.14c0.79-2.33,2.68-3.8,4.8-3.8
				c0.36,0,0.61,0.04,0.9,0.11v2.97c-0.32-0.07-0.64-0.11-1.07-0.11c-2.22,0-3.79,1.68-4.22,4.04c-0.07,0.43-0.14,0.93-0.14,1.47
				v9.24h-3.11V234.56z"/>
			<path class="st0" d="M682.59,246.48l-0.25-2.18h-0.11c-0.97,1.36-2.83,2.58-5.3,2.58c-3.51,0-5.3-2.47-5.3-4.98
				c0-4.19,3.72-6.48,10.42-6.44v-0.36c0-1.43-0.39-4.01-3.94-4.01c-1.61,0-3.29,0.5-4.51,1.29l-0.72-2.08
				c1.43-0.93,3.51-1.54,5.69-1.54c5.3,0,6.59,3.62,6.59,7.09v6.48c0,1.5,0.07,2.97,0.29,4.15H682.59z M682.13,237.63
				c-3.44-0.07-7.34,0.54-7.34,3.9c0,2.04,1.36,3.01,2.97,3.01c2.25,0,3.69-1.43,4.19-2.9c0.11-0.32,0.18-0.68,0.18-1V237.63z"/>
		</g>
	</g>
	<g>
		<path class="st0" d="M705.91,217.98h28.16l0.04,6.99h-10.68l-0.02,21.3l-6.99-0.05l0.04-21.24l-10.62-0.02L705.91,217.98z"/>
		<path class="st0" d="M746.7,230.63v0.02l-0.02,15.61l-7.71-0.06l-0.04-15.57H746.7z"/>
		<rect x="738.93" y="217.98" class="st0" width="7.71" height="6.99"/>
	</g>
</g>
</svg>
