<?xml version="1.0" encoding="utf-8"?>
<!-- Generator: Adobe Illustrator 24.0.1, SVG Export Plug-In . SVG Version: 6.00 Build 0)  -->
<svg version="1.1" id="Capa_1" xmlns="http://www.w3.org/2000/svg" xmlns:xlink="http://www.w3.org/1999/xlink" x="0px" y="0px"
	 viewBox="0 0 792 298.84" style="enable-background:new 0 0 792 298.84;" xml:space="preserve">
<style type="text/css">
	.st0{fill:#1D1D1B;}
</style>
<g>
	<g>
		<path class="st0" d="M76.16,115.02v0.08l-0.08,65.47l-32.34-0.25l-0.17-65.31H76.16z"/>
		<path class="st0" d="M104.82,62.11l118.16-0.15l0.17,29.33h-44.82l-0.07,89.47l-29.35-0.22l0.16-89.22l-44.56-0.07L104.82,62.11z"
			/>
		<path class="st0" d="M243.05,61.95h118.16l0.17,29.33h-44.81l-0.07,89.37l-29.34-0.22l0.16-89.12l-44.57-0.07L243.05,61.95z"/>
		<path class="st0" d="M414.17,115.02v0.08l-0.08,65.47l-32.34-0.25l-0.16-65.31H414.17z"/>
		<rect x="43.7" y="61.95" class="st0" width="32.37" height="29.33"/>
		<rect x="381.57" y="61.95" class="st0" width="32.36" height="29.33"/>
		<g>
			<g>
				<polygon class="st0" points="666.96,119.8 626.82,180.62 590.96,180.69 666.73,64.81 				"/>
			</g>
			<g>
				<path class="st0" d="M627.28,179.95c0.17,0,0.33-0.02,0.5-0.02C627.62,179.93,627.45,179.95,627.28,179.95L627.28,179.95z"/>
				<path class="st0" d="M766.38,62.1c-9.44,27.29-27.22,51.96-52.7,69.79c-21.65,15.15-30.79,21.73-55.35,23.55l-9.51,13.79
					c0,0,0,0,0,0l-6.09,8.83c27.89-0.1,40.58-6.49,65.17-23.7c22.05-15.42,38.91-36.32,49-59.25
					C756.91,95.1,765.12,76.93,766.38,62.1z"/>
				<path class="st0" d="M576.96,170.67c5.29,1.94,2.51,1.66,7.98,2.95l13.87-20.84c-5.68-1-3.12-0.42-8.64-2.1L576.96,170.67z"/>
			</g>
			<path class="st0" d="M727.78,151.72c-4.72,4.37-9.79,8.49-15.21,12.28c-2.95,2.06-5.96,3.96-9,5.76l9.31,10.93h35.92
				L727.78,151.72z"/>
			<path class="st0" d="M683.23,137c8.48-3.71,16.74-8.25,24.62-13.76c0.61-0.43,1.16-0.91,1.76-1.34l-35.18-57.32l0.23,57.79
				L683.23,137z"/>
		</g>
		<g>
			<path class="st0" d="M520.54,180.81L441.51,62.1l35.9,0.07l43.37,62.87L520.54,180.81z"/>
			<g>
				<polygon class="st0" points="605.79,62.1 569.82,62.1 527.06,125.04 526.83,180.81 				"/>
			</g>
		</g>
	</g>
	<g>
		<g>
			<path class="st0" d="M45.82,251.07c1.4,0.86,3.44,1.58,5.58,1.58c3.19,0,5.05-1.68,5.05-4.12c0-2.26-1.29-3.54-4.55-4.8
				c-3.94-1.4-6.37-3.44-6.37-6.84c0-3.76,3.11-6.55,7.8-6.55c2.47,0,4.26,0.57,5.33,1.18l-0.86,2.54c-0.79-0.43-2.4-1.15-4.58-1.15
				c-3.29,0-4.55,1.97-4.55,3.61c0,2.26,1.47,3.37,4.8,4.65c4.08,1.58,6.16,3.54,6.16,7.09c0,3.72-2.76,6.94-8.45,6.94
				c-2.33,0-4.87-0.68-6.16-1.54L45.82,251.07z"/>
			<path class="st0" d="M94,246.06c0,6.41-4.44,9.2-8.63,9.2c-4.69,0-8.31-3.44-8.31-8.91c0-5.8,3.79-9.2,8.59-9.2
				C90.63,237.14,94,240.76,94,246.06z M80.25,246.24c0,3.79,2.18,6.66,5.26,6.66c3.01,0,5.26-2.83,5.26-6.73
				c0-2.93-1.47-6.66-5.19-6.66C81.86,239.51,80.25,242.95,80.25,246.24z"/>
			<path class="st0" d="M112.28,242.23c0-1.79-0.04-3.26-0.14-4.69h2.76l0.14,2.79h0.11c0.97-1.65,2.58-3.19,5.44-3.19
				c2.36,0,4.15,1.43,4.9,3.47h0.07c0.54-0.97,1.22-1.72,1.93-2.25c1.04-0.79,2.18-1.22,3.83-1.22c2.29,0,5.69,1.51,5.69,7.52v10.2
				h-3.08v-9.81c0-3.33-1.22-5.33-3.76-5.33c-1.79,0-3.19,1.33-3.72,2.86c-0.14,0.43-0.25,1-0.25,1.58v10.7h-3.08v-10.38
				c0-2.76-1.22-4.76-3.62-4.76c-1.97,0-3.4,1.58-3.9,3.15c-0.18,0.47-0.25,1-0.25,1.54v10.45h-3.08V242.23z"/>
			<path class="st0" d="M172.12,246.06c0,6.41-4.44,9.2-8.63,9.2c-4.69,0-8.31-3.44-8.31-8.91c0-5.8,3.79-9.2,8.59-9.2
				C168.75,237.14,172.12,240.76,172.12,246.06z M158.37,246.24c0,3.79,2.18,6.66,5.26,6.66c3.01,0,5.26-2.83,5.26-6.73
				c0-2.93-1.47-6.66-5.19-6.66S158.37,242.95,158.37,246.24z"/>
			<path class="st0" d="M189.97,251.64c0.93,0.61,2.58,1.25,4.15,1.25c2.29,0,3.37-1.15,3.37-2.58c0-1.5-0.89-2.33-3.22-3.19
				c-3.11-1.11-4.58-2.83-4.58-4.9c0-2.79,2.26-5.09,5.98-5.09c1.75,0,3.29,0.5,4.26,1.08l-0.79,2.29c-0.68-0.43-1.93-1-3.54-1
				c-1.86,0-2.9,1.07-2.9,2.36c0,1.43,1.04,2.08,3.29,2.94c3.01,1.15,4.55,2.65,4.55,5.22c0,3.04-2.36,5.19-6.48,5.19
				c-1.9,0-3.65-0.47-4.87-1.18L189.97,251.64z"/>
			<path class="st0" d="M240.79,229.45h3.15v25.42h-3.15V229.45z"/>
			<path class="st0" d="M273.14,254.87l-0.25-2.18h-0.11c-0.97,1.36-2.83,2.58-5.3,2.58c-3.51,0-5.3-2.47-5.3-4.98
				c0-4.19,3.72-6.48,10.42-6.44v-0.36c0-1.43-0.39-4.01-3.94-4.01c-1.61,0-3.29,0.5-4.51,1.29l-0.72-2.08
				c1.43-0.93,3.51-1.54,5.69-1.54c5.3,0,6.59,3.62,6.59,7.09v6.48c0,1.5,0.07,2.97,0.29,4.15H273.14z M272.68,246.02
				c-3.44-0.07-7.34,0.54-7.34,3.9c0,2.04,1.36,3.01,2.97,3.01c2.26,0,3.69-1.43,4.19-2.9c0.11-0.32,0.18-0.68,0.18-1V246.02z"/>
			<path class="st0" d="M316.69,251.07c1.4,0.86,3.44,1.58,5.58,1.58c3.19,0,5.05-1.68,5.05-4.12c0-2.26-1.29-3.54-4.55-4.8
				c-3.94-1.4-6.37-3.44-6.37-6.84c0-3.76,3.11-6.55,7.8-6.55c2.47,0,4.26,0.57,5.33,1.18l-0.86,2.54c-0.79-0.43-2.4-1.15-4.58-1.15
				c-3.29,0-4.55,1.97-4.55,3.61c0,2.26,1.47,3.37,4.8,4.65c4.08,1.58,6.16,3.54,6.16,7.09c0,3.72-2.76,6.94-8.45,6.94
				c-2.33,0-4.87-0.68-6.16-1.54L316.69,251.07z"/>
			<path class="st0" d="M364.87,246.06c0,6.41-4.44,9.2-8.63,9.2c-4.69,0-8.31-3.44-8.31-8.91c0-5.8,3.79-9.2,8.59-9.2
				C361.5,237.14,364.87,240.76,364.87,246.06z M351.12,246.24c0,3.79,2.18,6.66,5.26,6.66c3.01,0,5.26-2.83,5.26-6.73
				c0-2.93-1.47-6.66-5.19-6.66S351.12,242.95,351.12,246.24z"/>
			<path class="st0" d="M383.15,229.45h3.15v25.42h-3.15V229.45z"/>
			<path class="st0" d="M420.41,250.14c0,1.79,0.04,3.37,0.14,4.73h-2.79l-0.18-2.83h-0.07c-0.82,1.4-2.65,3.22-5.73,3.22
				c-2.72,0-5.98-1.51-5.98-7.59v-10.13h3.15v9.59c0,3.29,1,5.51,3.87,5.51c2.11,0,3.58-1.47,4.15-2.86
				c0.18-0.47,0.29-1.04,0.29-1.61v-10.63h3.15V250.14z"/>
			<path class="st0" d="M452.29,254.22c-0.82,0.43-2.65,1-4.98,1c-5.22,0-8.63-3.54-8.63-8.84c0-5.33,3.65-9.2,9.31-9.2
				c1.86,0,3.51,0.47,4.37,0.9l-0.72,2.43c-0.75-0.43-1.93-0.82-3.65-0.82c-3.97,0-6.12,2.94-6.12,6.55c0,4.01,2.58,6.48,6.01,6.48
				c1.79,0,2.97-0.46,3.87-0.86L452.29,254.22z"/>
			<path class="st0" d="M473.8,232.67c0.03,1.07-0.75,1.93-2,1.93c-1.11,0-1.9-0.86-1.9-1.93c0-1.11,0.82-1.97,1.97-1.97
				C473.05,230.7,473.8,231.56,473.8,232.67z M470.29,254.87v-17.33h3.15v17.33H470.29z"/>
			<path class="st0" d="M508.66,246.06c0,6.41-4.44,9.2-8.63,9.2c-4.69,0-8.31-3.44-8.31-8.91c0-5.8,3.79-9.2,8.59-9.2
				C505.29,237.14,508.66,240.76,508.66,246.06z M494.91,246.24c0,3.79,2.18,6.66,5.26,6.66c3.01,0,5.26-2.83,5.26-6.73
				c0-2.93-1.47-6.66-5.19-6.66S494.91,242.95,494.91,246.24z M504.9,230.06l-4.37,5.12h-2.25l3.15-5.12H504.9z"/>
			<path class="st0" d="M526.94,242.23c0-1.79-0.04-3.26-0.14-4.69h2.79l0.18,2.86h0.07c0.86-1.65,2.86-3.26,5.73-3.26
				c2.4,0,6.12,1.43,6.12,7.38v10.34h-3.15v-9.99c0-2.79-1.04-5.12-4.01-5.12c-2.08,0-3.69,1.47-4.23,3.22
				c-0.14,0.39-0.21,0.93-0.21,1.47v10.42h-3.15V242.23z"/>
			<path class="st0" d="M583.02,243.2c0-2.22-0.07-4.01-0.14-5.66h2.83l0.14,2.97h0.07c1.29-2.11,3.33-3.37,6.16-3.37
				c4.19,0,7.34,3.54,7.34,8.81c0,6.23-3.8,9.31-7.88,9.31c-2.29,0-4.3-1-5.33-2.72h-0.07v9.41h-3.12V243.2z M586.13,247.81
				c0,0.46,0.07,0.89,0.14,1.29c0.57,2.18,2.47,3.69,4.73,3.69c3.33,0,5.26-2.72,5.26-6.69c0-3.47-1.83-6.44-5.15-6.44
				c-2.15,0-4.15,1.54-4.76,3.9c-0.11,0.39-0.21,0.86-0.21,1.29V247.81z"/>
			<path class="st0" d="M627.29,254.87l-0.25-2.18h-0.11c-0.97,1.36-2.83,2.58-5.3,2.58c-3.51,0-5.3-2.47-5.3-4.98
				c0-4.19,3.72-6.48,10.42-6.44v-0.36c0-1.43-0.39-4.01-3.94-4.01c-1.61,0-3.29,0.5-4.51,1.29l-0.72-2.08
				c1.43-0.93,3.51-1.54,5.69-1.54c5.3,0,6.59,3.62,6.59,7.09v6.48c0,1.5,0.07,2.97,0.29,4.15H627.29z M626.83,246.02
				c-3.44-0.07-7.34,0.54-7.34,3.9c0,2.04,1.36,3.01,2.97,3.01c2.25,0,3.69-1.43,4.19-2.9c0.11-0.32,0.18-0.68,0.18-1V246.02z"/>
			<path class="st0" d="M649.26,242.95c0-2.04-0.04-3.8-0.14-5.41h2.76l0.11,3.4h0.14c0.79-2.33,2.68-3.8,4.8-3.8
				c0.36,0,0.61,0.04,0.9,0.11v2.97c-0.32-0.07-0.64-0.11-1.07-0.11c-2.22,0-3.79,1.68-4.22,4.04c-0.07,0.43-0.14,0.93-0.14,1.47
				v9.24h-3.11V242.95z"/>
			<path class="st0" d="M684.69,254.87l-0.25-2.18h-0.11c-0.97,1.36-2.83,2.58-5.3,2.58c-3.51,0-5.3-2.47-5.3-4.98
				c0-4.19,3.72-6.48,10.42-6.44v-0.36c0-1.43-0.39-4.01-3.94-4.01c-1.61,0-3.29,0.5-4.51,1.29l-0.72-2.08
				c1.43-0.93,3.51-1.54,5.69-1.54c5.3,0,6.59,3.62,6.59,7.09v6.48c0,1.5,0.07,2.97,0.29,4.15H684.69z M684.23,246.02
				c-3.44-0.07-7.34,0.54-7.34,3.9c0,2.04,1.36,3.01,2.97,3.01c2.25,0,3.69-1.43,4.19-2.9c0.11-0.32,0.18-0.68,0.18-1V246.02z"/>
		</g>
	</g>
	<g>
		<path class="st0" d="M708.01,226.37h28.16l0.04,6.99h-10.68l-0.02,21.3l-6.99-0.05l0.04-21.24l-10.62-0.02L708.01,226.37z"/>
		<path class="st0" d="M748.8,239.02v0.02l-0.02,15.61l-7.71-0.06l-0.04-15.57H748.8z"/>
		<rect x="741.03" y="226.37" class="st0" width="7.71" height="6.99"/>
	</g>
</g>
</svg>
